<svg version="1.1" id="&#x421;&#x43B;&#x43E;&#x439;_1"
	 xmlns="http://www.w3.org/2000/svg" xmlns:xlink="http://www.w3.org/1999/xlink" x="0px" y="0px" viewBox="0 0 26.133 26.133"
	 style="enable-background:new 0 0 26.133 26.133;" xml:space="preserve">
<g>
	<path d="M13.066,0C5.859,0,0,5.864,0,13.067c0,7.207,5.859,13.066,13.066,13.066c0.446,0,0.805-0.359,0.805-0.804
		c0-0.446-0.359-0.805-0.805-0.805c-6.316,0-11.453-5.141-11.453-11.457c0-6.317,5.137-11.453,11.453-11.453
		c6.317,0,11.454,5.136,11.454,11.453c0,2.64-1.403,5.258-3.415,6.367c-0.73,0.398-1.523,0.598-2.367,0.605
		c0.508-0.3,0.946-0.707,1.274-1.222c0.062-0.098,0.148-0.18,0.191-0.289c0.262-0.629,0.285-1.348,0.442-2.012
		c0.195-0.852-3.727-2.516-4.067-1.453c-0.121,0.394-0.312,1.641-0.558,1.969c-0.223,0.293-0.762,0.152-1.102-0.137
		c-0.895-0.762-1.891-1.879-2.766-2.766c-0.023-0.023-0.05-0.05-0.074-0.074c-0.023-0.023-0.051-0.047-0.074-0.074v0.004
		c-0.883-0.875-2.004-1.871-2.766-2.77c-0.289-0.34-0.426-0.879-0.133-1.101c0.329-0.246,1.571-0.434,1.965-0.555
		c1.063-0.34-0.601-4.266-1.453-4.07C8.953,5.645,8.234,5.668,7.605,5.93C7.496,5.977,7.414,6.059,7.316,6.125
		c-2.238,1.418-2.527,4.864-0.339,7.434c0.832,0.98,1.699,1.93,2.593,2.859l-0.004,0.004c0.024,0.024,0.051,0.047,0.075,0.071
		c0.027,0.027,0.05,0.05,0.07,0.074l0.008-0.004c0.926,0.894,2.027,2.211,3.812,3.406c3.766,2.512,6.653,1.809,8.352,0.875
		c2.937-1.617,4.25-5.07,4.25-7.773C26.133,5.864,20.27,0,13.066,0L13.066,0z M13.066,0"/>
</g>
</svg>
