<?xml version="1.0" encoding="iso-8859-1"?>
<!-- Generator: Adobe Illustrator 19.0.0, SVG Export Plug-In . SVG Version: 6.00 Build 0)  -->
<svg version="1.1" id="&#x421;&#x43B;&#x43E;&#x439;_1"
	 xmlns="http://www.w3.org/2000/svg" xmlns:xlink="http://www.w3.org/1999/xlink" x="0px" y="0px" viewBox="0 0 48 28.8"
	 style="enable-background:new 0 0 48 28.8;" xml:space="preserve">
<g>
	<g>
		<defs>
			<rect id="SVGID_1_" width="48" height="28.8"/>
		</defs>
		<clipPath id="SVGID_2_">
			<use xlink:href="#SVGID_1_"  style="overflow:visible;"/>
		</clipPath>
		<path style="clip-path:url(#SVGID_2_);" d="M40.848,7.843c-9.508-9.511-24.985-9.511-34.496,0L0,14.195l6.512,6.512
			c4.754,4.754,11,7.133,17.246,7.133c6.25,0,12.496-2.379,17.25-7.133l6.351-6.352L40.848,7.843z M39.875,19.574
			c-8.887,8.887-23.348,8.887-32.234,0l-5.379-5.379l5.222-5.219c8.887-8.886,23.348-8.886,32.235,0l5.379,5.379L39.875,19.574z
			 M39.875,19.574"/>
	</g>
	<path d="M22.859,7.851c-3.089,0-5.601,2.512-5.601,5.602c0,0.441,0.359,0.797,0.801,0.797c0.441,0,0.8-0.356,0.8-0.797
		c0-2.207,1.793-4,4-4c0.442,0,0.797-0.36,0.797-0.801S23.301,7.851,22.859,7.851L22.859,7.851z M22.859,7.851"/>
	<path d="M23.656,3.851c-5.734,0-10.398,4.664-10.398,10.399c0,5.734,4.664,10.402,10.398,10.402
		c5.735,0,10.403-4.668,10.403-10.402C34.059,8.515,29.395,3.851,23.656,3.851L23.656,3.851z M23.656,23.05
		c-4.851,0-8.797-3.945-8.797-8.8c0-4.852,3.946-8.797,8.797-8.797c4.852,0,8.801,3.945,8.801,8.797
		C32.457,19.105,28.512,23.05,23.656,23.05L23.656,23.05z M23.656,23.05"/>
</g>
</svg>
